<svg width="36" height="36" viewBox="0 0 36 36" fill="none" xmlns="http://www.w3.org/2000/svg">
<g clip-path="url(#clip0_312_458)">
<path d="M33.3418 0H2.65968C1.19088 0 0 1.15488 0 2.57904V33.4195C0 34.8451 1.19088 36 2.65968 36H33.3418C34.8106 36 36 34.8437 36 33.4195V2.57904C36 1.15488 34.8106 0 33.3418 0Z" fill="#263238"/>
<path d="M26.4178 20.9331C25.0008 20.9331 23.6746 20.3326 22.4678 19.3548L22.7616 17.9753L22.7746 17.9249C23.0366 16.4561 23.8661 13.9894 26.4178 13.9894C28.3315 13.9894 29.8882 15.5489 29.8882 17.4641C29.8824 19.3736 28.3258 20.9331 26.4178 20.9331ZM26.4178 10.4686C23.1576 10.4686 20.6304 12.5897 19.6037 16.0774C18.0341 13.7201 16.8475 10.8905 16.152 8.50732H12.6442V17.6484C12.6442 19.4499 11.1768 20.9187 9.3768 20.9187C7.5768 20.9187 6.11088 19.4499 6.11088 17.6484V8.50732H2.6016V17.6484C2.58864 21.3924 5.6328 24.4654 9.37104 24.4654C13.1093 24.4654 16.1534 21.3924 16.1534 17.6484V16.1148C16.836 17.539 17.6712 18.9761 18.6864 20.2548L16.5365 30.3737H20.1293L21.6859 23.034C23.051 23.9096 24.6206 24.4582 26.4206 24.4582C30.2683 24.4582 33.4003 21.3017 33.4003 17.4497C33.3974 13.6049 30.2654 10.4686 26.4178 10.4686Z" fill="white"/>
</g>
<defs>
<clipPath id="clip0_312_458">
<rect width="36" height="36" fill="white"/>
</clipPath>
</defs>
</svg>
